<mxfile host="app.diagrams.net" modified="2023-07-14T05:45:22.854Z" agent="Mozilla/5.0 (Windows NT 10.0; Win64; x64) AppleWebKit/537.36 (KHTML, like Gecko) Chrome/114.0.0.0 Safari/537.36 OPR/100.0.0.0" etag="k84BBD-5b0YEBhp3kgle" version="21.6.2" type="github">
  <diagram name="第 1 页" id="c3X-BcrKEZm60M7dYXzs">
    <mxGraphModel dx="810" dy="731" grid="1" gridSize="10" guides="1" tooltips="1" connect="1" arrows="1" fold="1" page="1" pageScale="1" pageWidth="827" pageHeight="1169" math="0" shadow="0">
      <root>
        <mxCell id="0" />
        <mxCell id="1" parent="0" />
        <mxCell id="GcZpAp_KVHmjJUjmLsW_-6" value="AbstractWidgetFactoryA" style="swimlane;fontStyle=1;align=center;verticalAlign=top;childLayout=stackLayout;horizontal=1;startSize=26;horizontalStack=0;resizeParent=1;resizeParentMax=0;resizeLast=0;collapsible=1;marginBottom=0;whiteSpace=wrap;html=1;" vertex="1" parent="1">
          <mxGeometry x="68.92" y="290" width="170" height="60" as="geometry" />
        </mxCell>
        <mxCell id="GcZpAp_KVHmjJUjmLsW_-8" value="" style="line;strokeWidth=1;fillColor=none;align=left;verticalAlign=middle;spacingTop=-1;spacingLeft=3;spacingRight=3;rotatable=0;labelPosition=right;points=[];portConstraint=eastwest;strokeColor=inherit;" vertex="1" parent="GcZpAp_KVHmjJUjmLsW_-6">
          <mxGeometry y="26" width="170" height="8" as="geometry" />
        </mxCell>
        <mxCell id="GcZpAp_KVHmjJUjmLsW_-9" value="+create_widget: type" style="text;strokeColor=none;fillColor=none;align=left;verticalAlign=top;spacingLeft=4;spacingRight=4;overflow=hidden;rotatable=0;points=[[0,0.5],[1,0.5]];portConstraint=eastwest;whiteSpace=wrap;html=1;" vertex="1" parent="GcZpAp_KVHmjJUjmLsW_-6">
          <mxGeometry y="34" width="170" height="26" as="geometry" />
        </mxCell>
        <mxCell id="GcZpAp_KVHmjJUjmLsW_-10" value="AbstractWidgetFactoryB" style="swimlane;fontStyle=1;align=center;verticalAlign=top;childLayout=stackLayout;horizontal=1;startSize=26;horizontalStack=0;resizeParent=1;resizeParentMax=0;resizeLast=0;collapsible=1;marginBottom=0;whiteSpace=wrap;html=1;" vertex="1" parent="1">
          <mxGeometry x="268.92" y="290" width="170" height="60" as="geometry" />
        </mxCell>
        <mxCell id="GcZpAp_KVHmjJUjmLsW_-11" value="" style="line;strokeWidth=1;fillColor=none;align=left;verticalAlign=middle;spacingTop=-1;spacingLeft=3;spacingRight=3;rotatable=0;labelPosition=right;points=[];portConstraint=eastwest;strokeColor=inherit;" vertex="1" parent="GcZpAp_KVHmjJUjmLsW_-10">
          <mxGeometry y="26" width="170" height="8" as="geometry" />
        </mxCell>
        <mxCell id="GcZpAp_KVHmjJUjmLsW_-12" value="+create_widget: type" style="text;strokeColor=none;fillColor=none;align=left;verticalAlign=top;spacingLeft=4;spacingRight=4;overflow=hidden;rotatable=0;points=[[0,0.5],[1,0.5]];portConstraint=eastwest;whiteSpace=wrap;html=1;" vertex="1" parent="GcZpAp_KVHmjJUjmLsW_-10">
          <mxGeometry y="34" width="170" height="26" as="geometry" />
        </mxCell>
        <mxCell id="GcZpAp_KVHmjJUjmLsW_-28" style="edgeStyle=orthogonalEdgeStyle;rounded=0;orthogonalLoop=1;jettySize=auto;html=1;entryX=0.5;entryY=1;entryDx=0;entryDy=0;endArrow=block;endFill=0;dashed=1;" edge="1" parent="1" source="GcZpAp_KVHmjJUjmLsW_-14" target="GcZpAp_KVHmjJUjmLsW_-27">
          <mxGeometry relative="1" as="geometry" />
        </mxCell>
        <mxCell id="GcZpAp_KVHmjJUjmLsW_-14" value="WidgetA" style="swimlane;fontStyle=1;align=center;verticalAlign=top;childLayout=stackLayout;horizontal=1;startSize=26;horizontalStack=0;resizeParent=1;resizeParentMax=0;resizeLast=0;collapsible=1;marginBottom=0;whiteSpace=wrap;html=1;" vertex="1" parent="1">
          <mxGeometry x="68.92" y="525" width="170" height="60" as="geometry" />
        </mxCell>
        <mxCell id="GcZpAp_KVHmjJUjmLsW_-15" value="" style="line;strokeWidth=1;fillColor=none;align=left;verticalAlign=middle;spacingTop=-1;spacingLeft=3;spacingRight=3;rotatable=0;labelPosition=right;points=[];portConstraint=eastwest;strokeColor=inherit;" vertex="1" parent="GcZpAp_KVHmjJUjmLsW_-14">
          <mxGeometry y="26" width="170" height="8" as="geometry" />
        </mxCell>
        <mxCell id="GcZpAp_KVHmjJUjmLsW_-16" value="+ display: type" style="text;strokeColor=none;fillColor=none;align=left;verticalAlign=top;spacingLeft=4;spacingRight=4;overflow=hidden;rotatable=0;points=[[0,0.5],[1,0.5]];portConstraint=eastwest;whiteSpace=wrap;html=1;" vertex="1" parent="GcZpAp_KVHmjJUjmLsW_-14">
          <mxGeometry y="34" width="170" height="26" as="geometry" />
        </mxCell>
        <mxCell id="GcZpAp_KVHmjJUjmLsW_-17" value="WidgetB" style="swimlane;fontStyle=1;align=center;verticalAlign=top;childLayout=stackLayout;horizontal=1;startSize=26;horizontalStack=0;resizeParent=1;resizeParentMax=0;resizeLast=0;collapsible=1;marginBottom=0;whiteSpace=wrap;html=1;" vertex="1" parent="1">
          <mxGeometry x="262.92" y="525" width="170" height="60" as="geometry" />
        </mxCell>
        <mxCell id="GcZpAp_KVHmjJUjmLsW_-18" value="" style="line;strokeWidth=1;fillColor=none;align=left;verticalAlign=middle;spacingTop=-1;spacingLeft=3;spacingRight=3;rotatable=0;labelPosition=right;points=[];portConstraint=eastwest;strokeColor=inherit;" vertex="1" parent="GcZpAp_KVHmjJUjmLsW_-17">
          <mxGeometry y="26" width="170" height="8" as="geometry" />
        </mxCell>
        <mxCell id="GcZpAp_KVHmjJUjmLsW_-19" value="+ display: type" style="text;strokeColor=none;fillColor=none;align=left;verticalAlign=top;spacingLeft=4;spacingRight=4;overflow=hidden;rotatable=0;points=[[0,0.5],[1,0.5]];portConstraint=eastwest;whiteSpace=wrap;html=1;" vertex="1" parent="GcZpAp_KVHmjJUjmLsW_-17">
          <mxGeometry y="34" width="170" height="26" as="geometry" />
        </mxCell>
        <mxCell id="GcZpAp_KVHmjJUjmLsW_-26" value="&lt;p style=&quot;margin:0px;margin-top:4px;text-align:center;&quot;&gt;«interface»&lt;br style=&quot;border-color: var(--border-color);&quot;&gt;AbstractWidgetFactory&lt;br&gt;&lt;/p&gt;&lt;hr size=&quot;1&quot;&gt;&lt;div style=&quot;height:2px;&quot;&gt;&amp;nbsp;+ create_widget&lt;/div&gt;" style="verticalAlign=top;align=left;overflow=fill;fontSize=12;fontFamily=Helvetica;html=1;whiteSpace=wrap;" vertex="1" parent="1">
          <mxGeometry x="168.92000000000002" y="160" width="140" height="70" as="geometry" />
        </mxCell>
        <mxCell id="GcZpAp_KVHmjJUjmLsW_-27" value="&lt;p style=&quot;margin:0px;margin-top:4px;text-align:center;&quot;&gt;«interface»&lt;br&gt;&lt;span style=&quot;background-color: initial;&quot;&gt;AbstractWidget&lt;/span&gt;&lt;/p&gt;&lt;hr size=&quot;1&quot;&gt;&lt;div style=&quot;height:2px;&quot;&gt;&amp;nbsp;+ display&lt;/div&gt;" style="verticalAlign=top;align=left;overflow=fill;fontSize=12;fontFamily=Helvetica;html=1;whiteSpace=wrap;" vertex="1" parent="1">
          <mxGeometry x="178.92000000000002" y="395" width="140" height="70" as="geometry" />
        </mxCell>
        <mxCell id="GcZpAp_KVHmjJUjmLsW_-29" style="edgeStyle=orthogonalEdgeStyle;rounded=0;orthogonalLoop=1;jettySize=auto;html=1;entryX=0.5;entryY=1;entryDx=0;entryDy=0;endArrow=block;endFill=0;dashed=1;exitX=0.5;exitY=0;exitDx=0;exitDy=0;" edge="1" parent="1" source="GcZpAp_KVHmjJUjmLsW_-17" target="GcZpAp_KVHmjJUjmLsW_-27">
          <mxGeometry relative="1" as="geometry">
            <mxPoint x="318.92" y="495" as="sourcePoint" />
            <mxPoint x="413.92" y="435" as="targetPoint" />
          </mxGeometry>
        </mxCell>
        <mxCell id="GcZpAp_KVHmjJUjmLsW_-30" style="edgeStyle=orthogonalEdgeStyle;rounded=0;orthogonalLoop=1;jettySize=auto;html=1;entryX=0.5;entryY=1;entryDx=0;entryDy=0;endArrow=block;endFill=0;dashed=1;exitX=0.5;exitY=0;exitDx=0;exitDy=0;" edge="1" parent="1" source="GcZpAp_KVHmjJUjmLsW_-6" target="GcZpAp_KVHmjJUjmLsW_-26">
          <mxGeometry relative="1" as="geometry">
            <mxPoint x="168.92000000000002" y="280" as="sourcePoint" />
            <mxPoint x="263.92" y="220" as="targetPoint" />
          </mxGeometry>
        </mxCell>
        <mxCell id="GcZpAp_KVHmjJUjmLsW_-31" style="edgeStyle=orthogonalEdgeStyle;rounded=0;orthogonalLoop=1;jettySize=auto;html=1;endArrow=block;endFill=0;dashed=1;exitX=0.5;exitY=0;exitDx=0;exitDy=0;" edge="1" parent="1" source="GcZpAp_KVHmjJUjmLsW_-10">
          <mxGeometry relative="1" as="geometry">
            <mxPoint x="258.92" y="290" as="sourcePoint" />
            <mxPoint x="238.92000000000002" y="230" as="targetPoint" />
          </mxGeometry>
        </mxCell>
        <mxCell id="GcZpAp_KVHmjJUjmLsW_-33" style="edgeStyle=orthogonalEdgeStyle;rounded=0;orthogonalLoop=1;jettySize=auto;html=1;entryX=0;entryY=0.5;entryDx=0;entryDy=0;exitX=0;exitY=0.5;exitDx=0;exitDy=0;dashed=1;" edge="1" parent="1" source="GcZpAp_KVHmjJUjmLsW_-9" target="GcZpAp_KVHmjJUjmLsW_-16">
          <mxGeometry relative="1" as="geometry">
            <mxPoint x="238.92000000000002" y="337" as="sourcePoint" />
          </mxGeometry>
        </mxCell>
        <mxCell id="GcZpAp_KVHmjJUjmLsW_-35" style="edgeStyle=orthogonalEdgeStyle;rounded=0;orthogonalLoop=1;jettySize=auto;html=1;entryX=1;entryY=0.5;entryDx=0;entryDy=0;exitX=1;exitY=0.5;exitDx=0;exitDy=0;dashed=1;" edge="1" parent="1" source="GcZpAp_KVHmjJUjmLsW_-12" target="GcZpAp_KVHmjJUjmLsW_-19">
          <mxGeometry relative="1" as="geometry">
            <mxPoint x="108.92" y="420" as="sourcePoint" />
            <mxPoint x="528.92" y="700" as="targetPoint" />
          </mxGeometry>
        </mxCell>
        <object label="Main" factory_a="factory_a" id="GcZpAp_KVHmjJUjmLsW_-44">
          <mxCell style="swimlane;fontStyle=1;align=center;verticalAlign=top;childLayout=stackLayout;horizontal=1;startSize=26;horizontalStack=0;resizeParent=1;resizeParentMax=0;resizeLast=0;collapsible=1;marginBottom=0;whiteSpace=wrap;html=1;" vertex="1" parent="1">
            <mxGeometry x="618.92" y="186" width="160" height="104" as="geometry">
              <mxRectangle x="460" y="160" width="70" height="30" as="alternateBounds" />
            </mxGeometry>
          </mxCell>
        </object>
        <mxCell id="GcZpAp_KVHmjJUjmLsW_-45" value="+ factory_a&lt;br&gt;+ factory_b" style="text;strokeColor=none;fillColor=none;align=left;verticalAlign=top;spacingLeft=4;spacingRight=4;overflow=hidden;rotatable=0;points=[[0,0.5],[1,0.5]];portConstraint=eastwest;whiteSpace=wrap;html=1;" vertex="1" parent="GcZpAp_KVHmjJUjmLsW_-44">
          <mxGeometry y="26" width="160" height="44" as="geometry" />
        </mxCell>
        <mxCell id="GcZpAp_KVHmjJUjmLsW_-46" value="" style="line;strokeWidth=1;fillColor=none;align=left;verticalAlign=middle;spacingTop=-1;spacingLeft=3;spacingRight=3;rotatable=0;labelPosition=right;points=[];portConstraint=eastwest;strokeColor=inherit;" vertex="1" parent="GcZpAp_KVHmjJUjmLsW_-44">
          <mxGeometry y="70" width="160" height="8" as="geometry" />
        </mxCell>
        <mxCell id="GcZpAp_KVHmjJUjmLsW_-47" value="+ client_code: type" style="text;strokeColor=none;fillColor=none;align=left;verticalAlign=top;spacingLeft=4;spacingRight=4;overflow=hidden;rotatable=0;points=[[0,0.5],[1,0.5]];portConstraint=eastwest;whiteSpace=wrap;html=1;" vertex="1" parent="GcZpAp_KVHmjJUjmLsW_-44">
          <mxGeometry y="78" width="160" height="26" as="geometry" />
        </mxCell>
        <mxCell id="GcZpAp_KVHmjJUjmLsW_-48" style="edgeStyle=orthogonalEdgeStyle;rounded=0;orthogonalLoop=1;jettySize=auto;html=1;exitX=0;exitY=0.5;exitDx=0;exitDy=0;entryX=1;entryY=0.25;entryDx=0;entryDy=0;dashed=1;dashPattern=12 12;" edge="1" parent="1" source="GcZpAp_KVHmjJUjmLsW_-45" target="GcZpAp_KVHmjJUjmLsW_-26">
          <mxGeometry relative="1" as="geometry" />
        </mxCell>
      </root>
    </mxGraphModel>
  </diagram>
</mxfile>
